<svg width="1920" height="1080" viewBox="0 0 1920 1080" fill="none" xmlns="http://www.w3.org/2000/svg">
<g clip-path="url(#clip0_261_823)">
<rect width="1920" height="1080" fill="#F8F8F8"/>
<rect width="1920" height="1080" fill="#F8F8F8"/>
<path fill-rule="evenodd" clip-rule="evenodd" d="M1501.42 5.49798C1473.27 -2.65705 1446.55 -5.92023 1430.96 -6.50071L1431.04 -8.49933C1446.78 -7.91315 1473.66 -4.62633 1501.98 3.57697C1530.28 11.7769 1560.12 24.9177 1581.69 45.2728C1635.44 96.012 1647.64 160.494 1620.38 210.479C1613.73 222.671 1611.42 236.091 1614.94 248.764C1618.46 261.425 1627.83 273.479 1644.8 282.875C1678.8 301.702 1743.13 309.756 1850.82 290.516C1893.97 282.807 1926.16 281.086 1950.16 283.537C1974.17 285.989 1990.06 292.622 2000.55 301.679C2020.6 318.988 2020.55 344.851 2020.5 365.63C2020.5 366.598 2020.5 367.555 2020.5 368.5H2018.5C2018.5 367.617 2018.5 366.725 2018.5 365.826C2018.54 344.859 2018.58 319.885 1999.25 303.192C1989.16 294.487 1973.71 287.952 1949.96 285.527C1926.21 283.101 1894.23 284.793 1851.18 292.484C1743.37 311.744 1678.45 303.798 1643.83 284.625C1626.49 275.021 1616.7 262.575 1613.01 249.299C1609.33 236.034 1611.77 222.079 1618.62 209.521C1645.36 160.506 1633.56 96.988 1580.31 46.7272C1559.08 26.6823 1529.58 13.6564 1501.42 5.49798ZM1559.8 -12.965C1533.9 -20.4657 1509.31 -23.4669 1494.96 -24.0007L1495.04 -25.9993C1509.54 -25.4598 1534.29 -22.435 1560.36 -14.8861C1586.42 -7.34048 1613.9 4.75356 1633.76 23.4926C1683.27 70.1917 1694.51 129.554 1669.4 175.579C1663.28 186.781 1661.16 199.106 1664.4 210.741C1667.63 222.365 1676.24 233.438 1691.84 242.075C1723.12 259.382 1782.31 266.796 1881.44 249.096C1921.17 242.003 1950.62 240.361 1972.47 242.531C1994.32 244.701 2008.63 250.692 2017.97 258.931C2027.31 267.18 2031.55 277.584 2033.46 288.34C2035.09 297.498 2035.03 306.984 2034.98 315.644C2034.97 317.122 2034.97 318.576 2034.97 320H2032.97C2032.97 318.554 2032.97 317.086 2032.98 315.6C2033.03 306.932 2033.08 297.653 2031.49 288.69C2029.63 278.226 2025.55 268.292 2016.64 260.43C2007.73 252.559 1993.87 246.665 1972.27 244.521C1950.68 242.376 1921.42 243.989 1881.79 251.064C1782.55 268.784 1722.77 261.478 1690.87 243.825C1674.9 234.982 1665.87 223.515 1662.47 211.276C1659.07 199.049 1661.33 186.189 1667.64 174.621C1692.23 129.566 1681.39 71.1683 1632.39 24.9474C1612.86 6.5184 1585.72 -5.46089 1559.8 -12.965ZM408.755 1232.16C436.854 1240.49 463.553 1243.92 479.139 1244.59L479.052 1246.59C463.313 1245.91 436.452 1242.46 408.186 1234.08C379.932 1225.71 350.174 1212.38 328.735 1191.9C275.293 1140.83 263.485 1076.28 291.054 1026.46C297.779 1014.31 300.168 1000.9 296.726 988.208C293.287 975.525 283.99 963.414 267.078 953.914C233.194 934.88 168.911 926.433 61.1016 945.014C17.9054 952.459 -14.2865 953.983 -38.276 951.385C-62.2689 948.786 -78.1215 942.056 -88.5567 932.936C-108.501 915.504 -108.288 889.643 -108.116 868.864C-108.108 867.896 -108.1 866.939 -108.094 865.994L-106.094 866.006C-106.1 866.889 -106.107 867.781 -106.114 868.68C-106.278 889.646 -106.474 914.62 -87.2405 931.43C-77.2097 940.197 -61.7934 946.826 -38.0607 949.397C-14.3247 951.968 17.6656 950.471 60.7619 943.043C168.684 924.443 233.55 932.786 268.058 952.171C285.342 961.88 295.051 974.386 298.656 987.684C302.259 1000.97 299.73 1014.91 292.804 1027.43C265.769 1076.28 277.178 1139.87 330.116 1190.45C351.229 1210.63 380.644 1223.83 408.755 1232.16ZM350.262 1250.27C376.122 1257.93 400.692 1261.08 415.033 1261.7L414.947 1263.7C400.452 1263.07 375.72 1259.89 349.694 1252.19C323.68 1244.48 296.273 1232.22 276.525 1213.36C227.31 1166.36 216.424 1106.93 241.824 1061.06C248.006 1049.89 250.199 1037.58 247.037 1025.93C243.878 1014.28 235.337 1003.16 219.784 994.426C188.617 976.928 129.467 969.153 30.23 986.246C-9.53493 993.096 -39.0035 994.558 -60.8378 992.255C-82.6746 989.951 -96.9474 983.873 -106.23 975.576C-115.524 967.27 -119.702 956.841 -121.547 946.073C-123.117 936.905 -123.003 927.42 -122.899 918.761C-122.882 917.283 -122.864 915.829 -122.856 914.405L-120.856 914.417C-120.864 915.862 -120.882 917.331 -120.899 918.817C-121.002 927.484 -121.112 936.763 -119.575 945.735C-117.781 956.211 -113.753 966.169 -104.897 974.085C-96.0287 982.011 -82.2067 987.989 -60.6279 990.266C-39.0466 992.542 -9.77852 991.108 29.8906 984.275C129.239 967.163 188.973 974.834 220.763 992.682C236.688 1001.62 245.642 1013.14 248.967 1025.4C252.29 1037.65 249.957 1050.5 243.573 1062.03C218.709 1106.93 229.195 1165.39 277.906 1211.91C297.328 1230.46 324.391 1242.61 350.262 1250.27ZM2031.29 879.686C2022.92 879.829 2013.82 884.102 2004.24 894.672C1984.75 916.174 1949.28 942.856 1912.18 966.58C1875.06 990.309 1836.19 1011.15 1809.85 1020.94L1809.83 1020.94L1809.82 1020.95C1757.15 1038.84 1609.85 1063.82 1441.25 1020.97C1395.73 1009.4 1358.18 999.386 1326.18 990.853C1210.14 959.91 1167.01 948.408 1080.55 952.499C1017.87 955.465 957.424 983.609 907.302 1018C857.186 1052.38 817.48 1092.94 796.294 1120.61L794.706 1119.39C816.02 1091.56 855.879 1050.85 906.171 1016.35C956.456 981.847 1017.26 953.491 1080.45 950.501C1167.25 946.394 1210.71 957.986 1326.84 988.957C1358.83 997.486 1396.32 1007.49 1441.75 1019.03C1609.93 1061.78 1756.82 1036.83 1809.17 1019.06C1835.32 1009.34 1874.04 988.587 1911.1 964.895C1948.17 941.194 1983.45 914.626 2002.76 893.328C2012.58 882.497 2022.16 877.842 2031.26 877.686C2040.34 877.531 2048.7 881.863 2056.09 888.519C2070.85 901.809 2082.09 924.699 2087.95 941.674L2086.05 942.326C2080.24 925.467 2069.14 902.958 2054.76 890.005C2047.58 883.541 2039.68 879.542 2031.29 879.686ZM2031.29 931.004C2022.92 931.147 2013.82 935.42 2004.24 945.99C1984.75 967.492 1949.28 994.174 1912.18 1017.9C1875.06 1041.63 1836.19 1062.47 1809.85 1072.26L1809.83 1072.26L1809.82 1072.26C1757.15 1090.16 1609.85 1115.14 1441.25 1072.29C1395.73 1060.72 1358.18 1050.7 1326.18 1042.17C1210.14 1011.23 1167.01 999.726 1080.55 1003.82C1017.87 1006.78 957.424 1034.93 907.302 1069.31C857.186 1103.7 817.48 1144.26 796.294 1171.93L794.706 1170.71C816.02 1142.88 855.879 1102.17 906.171 1067.66C956.456 1033.17 1017.26 1004.81 1080.45 1001.82C1167.25 997.712 1210.71 1009.3 1326.84 1040.27C1358.83 1048.8 1396.32 1058.8 1441.75 1070.35C1609.93 1113.09 1756.82 1088.15 1809.17 1070.38C1835.32 1060.66 1874.04 1039.91 1911.1 1016.21C1948.17 992.512 1983.45 965.944 2002.76 944.646C2012.58 933.815 2022.16 929.16 2031.26 929.004C2040.34 928.849 2048.7 933.181 2056.09 939.837C2070.85 953.127 2082.09 976.017 2087.95 992.992L2086.05 993.644C2080.24 976.785 2069.14 954.276 2054.76 941.323C2047.58 934.859 2039.68 930.86 2031.29 931.004Z" fill="#38A3A5"/>
</g>
<defs>
<clipPath id="clip0_261_823">
<rect width="1920" height="1080" fill="white"/>
</clipPath>
</defs>
</svg>
