<svg width="108" height="85" viewBox="0 0 108 85" fill="none" xmlns="http://www.w3.org/2000/svg">
<g clip-path="url(#clip0_61_622)">
<path d="M66.3231 75.4949L63.4408 78.1482L65.7314 74.3049C63.9267 71.0325 60.9751 68.2043 60.9751 68.2043C60.9751 68.2043 54.8517 74.0706 54.8517 78.682C54.8517 83.2933 57.5932 84.9034 60.9751 84.9034C64.357 84.9034 67.0985 83.2933 67.0985 78.682C67.0986 77.6556 66.7947 76.5671 66.3231 75.4949Z" fill="#F2F2F2"/>
<path d="M62.6994 78.2918V78.5191C62.6859 81.1612 62.2403 83.2226 61.3659 84.6742C61.3535 84.6956 61.34 84.7158 61.3277 84.7372L61.2298 84.6776L61.1364 84.6191C62.1064 83.0516 62.4496 80.836 62.462 78.5315C62.4631 78.4572 62.4642 78.3819 62.4631 78.3065C62.4597 77.3309 62.4001 76.344 62.3045 75.3853C62.2977 75.3111 62.2898 75.2357 62.2819 75.1603C62.1491 73.8955 61.9578 72.687 61.762 71.6371C61.7485 71.5629 61.7339 71.4886 61.7193 71.4155C61.3806 69.6398 61.0351 68.3537 60.9563 68.069C60.9473 68.0341 60.9417 68.015 60.9406 68.0105L61.0475 67.9801L61.0486 67.979L61.1566 67.9486C61.1577 67.9531 61.1769 68.0172 61.2084 68.1365C61.3288 68.5821 61.6416 69.7918 61.9488 71.3873C61.9623 71.4594 61.977 71.5336 61.9905 71.6079C62.1503 72.4597 62.3067 73.4117 62.4305 74.4109C62.462 74.6618 62.4901 74.9094 62.5149 75.1535C62.5239 75.2289 62.5318 75.3043 62.5385 75.3786C62.642 76.4149 62.6957 77.386 62.6994 78.2918Z" fill="white"/>
<path d="M61.9489 71.3873C61.8735 71.3975 61.7969 71.4076 61.7193 71.4155C61.5084 71.4372 61.2966 71.4481 61.0846 71.4481C60.1812 71.4493 59.289 71.2478 58.4739 70.8585C58.4266 70.9181 58.3793 70.9778 58.3309 71.0385C59.1885 71.4571 60.1303 71.6742 61.0846 71.6732C61.3109 71.6731 61.537 71.6611 61.762 71.6372C61.8386 71.6293 61.9151 71.6192 61.9905 71.6079C62.6128 71.5186 63.218 71.3354 63.7854 71.0644C63.737 71.0025 63.6897 70.9418 63.6436 70.8821C63.1066 71.1331 62.5356 71.3033 61.9489 71.3873Z" fill="white"/>
<path d="M62.515 75.1536C62.4373 75.158 62.3597 75.1603 62.282 75.1603C62.2584 75.1614 62.2336 75.1614 62.21 75.1614C61.2311 75.1614 60.2667 74.9248 59.3991 74.4716C58.5314 74.0184 57.7862 73.3621 57.227 72.5587C57.182 72.6251 57.137 72.6915 57.0931 72.759C57.676 73.5719 58.4441 74.2343 59.334 74.6912C60.2238 75.1481 61.2097 75.3864 62.21 75.3865C62.2415 75.3865 62.273 75.3865 62.3045 75.3854C62.3833 75.3842 62.4609 75.382 62.5386 75.3786C63.7401 75.3171 64.8985 74.9108 65.8752 74.2083C65.8392 74.142 65.8032 74.0756 65.766 74.0092C64.8168 74.6988 63.6869 75.0965 62.515 75.1536Z" fill="white"/>
<path d="M62.6995 78.2918C62.6207 78.2986 62.5419 78.3031 62.4632 78.3065C62.3788 78.3098 62.2944 78.3121 62.21 78.3121C60.8946 78.3106 59.6151 77.8831 58.5631 77.0936C57.511 76.3041 56.743 75.1951 56.374 73.9326C56.3234 74.0238 56.2728 74.1138 56.2244 74.205C56.6401 75.4645 57.4422 76.561 58.5167 77.3387C59.5912 78.1164 60.8835 78.5357 62.21 78.5371C62.2944 78.5371 62.3788 78.536 62.462 78.5315C62.5419 78.5293 62.6207 78.5248 62.6995 78.5191C64.2906 78.3947 65.7749 77.6703 66.8519 76.4926C66.8283 76.4093 66.8013 76.3272 66.7743 76.2439C65.734 77.4304 64.2724 78.165 62.6995 78.2918Z" fill="white"/>
<path d="M14.772 29.9943C22.9304 29.9943 29.5441 23.3811 29.5441 15.2233C29.5441 7.06555 22.9304 0.452362 14.772 0.452362C6.61367 0.452362 0 7.06555 0 15.2233C0 23.3811 6.61367 29.9943 14.772 29.9943Z" fill="#E4E4E4"/>
<path d="M14.7721 27.5325C21.5707 27.5325 27.0821 22.0215 27.0821 15.2233C27.0821 8.42517 21.5707 2.91418 14.7721 2.91418C7.97342 2.91418 2.46204 8.42517 2.46204 15.2233C2.46204 22.0215 7.97342 27.5325 14.7721 27.5325Z" fill="#38A3A5"/>
<path d="M14.7721 27.5325C21.5707 27.5325 27.0821 22.0215 27.0821 15.2233C27.0821 8.42517 21.5707 2.91418 14.7721 2.91418C7.97342 2.91418 2.46204 8.42517 2.46204 15.2233C2.46204 22.0215 7.97342 27.5325 14.7721 27.5325Z" fill="#38A3A5"/>
<path d="M54.0001 29.9943C62.1584 29.9943 68.7721 23.3811 68.7721 15.2233C68.7721 7.06555 62.1584 0.452362 54.0001 0.452362C45.8417 0.452362 39.228 7.06555 39.228 15.2233C39.228 23.3811 45.8417 29.9943 54.0001 29.9943Z" fill="#E4E4E4"/>
<path d="M54 27.5325C60.7986 27.5325 66.31 22.0215 66.31 15.2233C66.31 8.42517 60.7986 2.91418 54 2.91418C47.2013 2.91418 41.6899 8.42517 41.6899 15.2233C41.6899 22.0215 47.2013 27.5325 54 27.5325Z" fill="white"/>
<path d="M93.228 29.9943C101.386 29.9943 108 23.3811 108 15.2233C108 7.06555 101.386 0.452362 93.228 0.452362C85.0696 0.452362 78.4559 7.06555 78.4559 15.2233C78.4559 23.3811 85.0696 29.9943 93.228 29.9943Z" fill="#E4E4E4"/>
<path d="M93.228 27.5325C100.027 27.5325 105.538 22.0215 105.538 15.2233C105.538 8.42517 100.027 2.91418 93.228 2.91418C86.4294 2.91418 80.918 8.42517 80.918 15.2233C80.918 22.0215 86.4294 27.5325 93.228 27.5325Z" fill="white"/>
<path d="M13.726 19.6746C13.704 19.6746 13.682 19.6741 13.6599 19.673C13.4652 19.6636 13.2749 19.6122 13.1019 19.5224C12.929 19.4325 12.7775 19.3063 12.6579 19.1524L10.7696 16.7248C10.5497 16.4414 10.4512 16.0825 10.4957 15.7266C10.5402 15.3708 10.724 15.0471 11.0068 14.8265L11.0747 14.7737C11.3581 14.5538 11.7171 14.4553 12.073 14.4998C12.4289 14.5443 12.7527 14.7281 12.9732 15.0109C13.0797 15.1477 13.2144 15.2599 13.3682 15.3399C13.522 15.4198 13.6913 15.4656 13.8645 15.474C14.0376 15.4824 14.2106 15.4534 14.3714 15.3888C14.5323 15.3242 14.6773 15.2256 14.7965 15.0998L18.6308 11.0527C18.7529 10.9237 18.8993 10.8201 19.0616 10.7477C19.2238 10.6753 19.3987 10.6355 19.5763 10.6307C19.7539 10.6259 19.9307 10.6562 20.0966 10.7197C20.2626 10.7832 20.4143 10.8788 20.5433 11.001L20.6059 11.0603C20.8663 11.3071 21.0181 11.6471 21.0278 12.0058C21.0374 12.3644 20.9043 12.7122 20.6575 12.9726L14.7078 19.2522C14.5815 19.3857 14.4293 19.492 14.2605 19.5646C14.0917 19.6372 13.9098 19.6747 13.726 19.6746Z" fill="white"/>
<path d="M54.31 27.5325C61.1087 27.5325 66.6201 22.0215 66.6201 15.2233C66.6201 8.42517 61.1087 2.91418 54.31 2.91418C47.5114 2.91418 42 8.42517 42 15.2233C42 22.0215 47.5114 27.5325 54.31 27.5325Z" fill="#23577A"/>
<path d="M53.264 19.6746C53.242 19.6746 53.22 19.6741 53.1979 19.673C53.0032 19.6636 52.8129 19.6122 52.6399 19.5224C52.4669 19.4325 52.3155 19.3063 52.1959 19.1524L50.3076 16.7248C50.0877 16.4414 49.9892 16.0825 50.0337 15.7266C50.0781 15.3708 50.2619 15.0471 50.5448 14.8265L50.6127 14.7737C50.8961 14.5538 51.2551 14.4553 51.611 14.4998C51.9669 14.5443 52.2906 14.7281 52.5112 15.0109C52.6176 15.1477 52.7524 15.2599 52.9062 15.3399C53.06 15.4198 53.2293 15.4656 53.4024 15.474C53.5756 15.4824 53.7485 15.4534 53.9094 15.3888C54.0703 15.3242 54.2153 15.2256 54.3345 15.0998L58.1687 11.0527C58.2909 10.9237 58.4373 10.8201 58.5995 10.7477C58.7618 10.6753 58.9367 10.6355 59.1143 10.6307C59.2919 10.6259 59.4687 10.6562 59.6346 10.7197C59.8005 10.7832 59.9523 10.8788 60.0813 11.001L60.1438 11.0603C60.4043 11.3071 60.556 11.6471 60.5657 12.0058C60.5754 12.3644 60.4422 12.7122 60.1955 12.9726L54.2458 19.2522C54.1195 19.3857 53.9672 19.492 53.7984 19.5646C53.6296 19.6372 53.4478 19.6747 53.264 19.6746Z" fill="white"/>
<path d="M93.31 27.5325C100.109 27.5325 105.62 22.0215 105.62 15.2233C105.62 8.42517 100.109 2.91418 93.31 2.91418C86.5114 2.91418 81 8.42517 81 15.2233C81 22.0215 86.5114 27.5325 93.31 27.5325Z" fill="#575B63"/>
<path d="M92.264 19.6746C92.242 19.6746 92.22 19.6741 92.1979 19.673C92.0032 19.6636 91.8129 19.6122 91.6399 19.5224C91.4669 19.4325 91.3155 19.3063 91.1959 19.1524L89.3076 16.7248C89.0877 16.4414 88.9892 16.0825 89.0337 15.7266C89.0781 15.3708 89.2619 15.0471 89.5448 14.8265L89.6127 14.7737C89.8961 14.5538 90.2551 14.4553 90.611 14.4998C90.9669 14.5443 91.2906 14.7281 91.5112 15.0109C91.6176 15.1477 91.7524 15.2599 91.9062 15.3399C92.06 15.4198 92.2293 15.4656 92.4024 15.474C92.5756 15.4824 92.7485 15.4534 92.9094 15.3888C93.0703 15.3242 93.2153 15.2256 93.3345 15.0998L97.1687 11.0527C97.2909 10.9237 97.4373 10.8201 97.5995 10.7477C97.7618 10.6753 97.9367 10.6355 98.1143 10.6307C98.2919 10.6259 98.4687 10.6562 98.6346 10.7197C98.8005 10.7832 98.9523 10.8788 99.0813 11.001L99.1438 11.0603C99.4043 11.3071 99.556 11.6471 99.5657 12.0058C99.5754 12.3644 99.4422 12.7122 99.1955 12.9726L93.2458 19.2522C93.1195 19.3857 92.9672 19.492 92.7984 19.5646C92.6296 19.6372 92.4478 19.6747 92.264 19.6746Z" fill="white"/>
<path d="M47.5167 12.2324H37.7937V3.77712C37.8037 3.25358 38.0209 2.75537 38.3977 2.3917C38.7745 2.02804 39.2801 1.82859 39.8037 1.83708H43.0356C45.5065 1.83708 47.5167 3.77733 47.5167 6.16221V12.2324Z" fill="#2F2E41"/>
<path d="M51.1163 82.9863L49.2705 82.9861L48.3923 75.8672L51.1166 75.8673L51.1163 82.9863Z" fill="#FFB6B6"/>
<path d="M51.587 84.7753L45.6354 84.7751V84.6999C45.6354 84.0855 45.8795 83.4964 46.3139 83.062C46.7483 82.6276 47.3376 82.3835 47.9519 82.3835L51.5871 82.3837L51.587 84.7753Z" fill="#2F2E41"/>
<path d="M34.1033 82.9863L32.2575 82.9861L31.3794 75.8672L34.1036 75.8673L34.1033 82.9863Z" fill="#FFB6B6"/>
<path d="M34.5741 84.7753L28.6224 84.7751V84.6999C28.6225 84.0855 28.8666 83.4964 29.301 83.062C29.7354 82.6276 30.3246 82.3835 30.939 82.3835L34.5742 82.3837L34.5741 84.7753Z" fill="#2F2E41"/>
<path d="M36.332 25.7937L35.1276 33.4716L46.5699 33.6221L45.0643 26.2454L36.332 25.7937Z" fill="#FFB6B6"/>
<path d="M35.4595 31.5969L31.8152 41.3L31.3635 81.5114H34.45L41.8273 49.2037L48.6024 80.668H51.6135L49.5057 45.2895C49.5057 45.2895 50.1273 38.1886 46.9462 33.9985L46.1719 31.7617L35.4595 31.5969Z" fill="#2F2E41"/>
<path d="M51.0918 39.161C50.7732 39.0742 50.4775 38.9185 50.2256 38.7051C49.9737 38.4917 49.7716 38.2256 49.6336 37.9256C49.4956 37.6256 49.4251 37.299 49.427 36.9688C49.4289 36.6387 49.5032 36.3129 49.6446 36.0145L44.7769 20.1456L48.3573 19.4359L52.8093 34.9908C53.2949 35.2616 53.6642 35.7011 53.8473 36.226C54.0305 36.7508 54.0147 37.3247 53.803 37.8387C53.5913 38.3527 53.1983 38.7712 52.6987 39.0149C52.199 39.2586 51.6272 39.3106 51.0918 39.161Z" fill="#FFB6B6"/>
<path d="M44.6498 30.0339L36.7623 29.8816C36.5369 29.8769 36.3192 29.7983 36.1427 29.658C35.9662 29.5177 35.8405 29.3234 35.7849 29.1049C35.3621 27.4309 34.4318 23.0682 34.9252 18.723C35.0226 17.8812 35.2878 17.0675 35.7052 16.33C36.1226 15.5926 36.6837 14.9463 37.3553 14.4295C38.0269 13.9127 38.7953 13.5358 39.6151 13.3211C40.4349 13.1064 41.2894 13.0584 42.1281 13.1797C43.0129 13.3064 43.8608 13.6187 44.6164 14.0961C45.3719 14.5735 46.018 15.2052 46.5122 15.9499C47.0064 16.6945 47.3376 17.5352 47.484 18.4169C47.6304 19.2985 47.5888 20.2011 47.3618 21.0655C46.3689 24.8356 45.8081 27.5329 45.6949 29.0824C45.6781 29.3064 45.5885 29.5188 45.4397 29.6871C45.2909 29.8554 45.091 29.9704 44.8707 30.0145C44.8052 30.0275 44.7386 30.0341 44.6718 30.0341C44.6644 30.0341 44.6572 30.0341 44.6498 30.0339Z" fill="#E4E4E4"/>
<path d="M20.6909 16.0949C20.7383 16.2011 20.7772 16.311 20.8073 16.4233L30.6802 19.778L32.588 18.1115L35.4795 20.6617L32.3889 23.9401C32.1393 24.2049 31.8104 24.3816 31.4517 24.4437C31.0931 24.5057 30.7239 24.4498 30.3998 24.2842L19.8351 18.8882C19.4531 19.1225 19.0087 19.235 18.5612 19.2107C18.1137 19.1863 17.6842 19.0263 17.3298 18.7519C16.9754 18.4775 16.713 18.1018 16.5774 17.6746C16.4418 17.2474 16.4395 16.7891 16.5708 16.3606C16.7021 15.9321 16.9607 15.5537 17.3123 15.2757C17.6639 14.9978 18.0918 14.8335 18.539 14.8046C18.9863 14.7758 19.4318 14.8838 19.8161 15.1143C20.2005 15.3447 20.5056 15.6868 20.6909 16.0949Z" fill="#FFB6B6"/>
<path d="M30.7007 19.243C30.7015 19.107 30.7316 18.9728 30.7889 18.8496C30.8463 18.7263 30.9296 18.6169 31.0331 18.5287L34.6481 15.4496C35.1056 14.9254 35.7523 14.604 36.4464 14.5559C37.1405 14.5079 37.8254 14.737 38.3508 15.1932C38.8762 15.6493 39.1992 16.2952 39.249 16.9891C39.2988 17.6831 39.0713 18.3684 38.6164 18.8949L36.042 22.9034C35.9686 23.0177 35.8713 23.115 35.7569 23.1884C35.6424 23.2618 35.5135 23.3097 35.3789 23.3288C35.2443 23.3479 35.1071 23.3377 34.9768 23.2991C34.8464 23.2604 34.7259 23.1941 34.6235 23.1046L31.0244 19.9613C30.922 19.8719 30.84 19.7615 30.7841 19.6375C30.7283 19.5135 30.6998 19.3789 30.7007 19.243Z" fill="#E4E4E4"/>
<path d="M44.5587 24.1652C44.4384 24.102 44.3331 24.0135 44.2501 23.9058C44.1671 23.7981 44.1083 23.6738 44.0777 23.5413L43.0089 18.9147C42.7543 18.2673 42.7669 17.5454 43.0439 16.9072C43.3208 16.2691 43.8396 15.7668 44.4864 15.5106C45.1331 15.2543 45.8551 15.265 46.4941 15.5402C47.133 15.8155 47.6367 16.3329 47.8947 16.9789L50.2677 21.1097C50.3354 21.2276 50.377 21.3587 50.3894 21.4941C50.4019 21.6295 50.3851 21.766 50.34 21.8942C50.295 22.0225 50.2229 22.1396 50.1285 22.2375C50.0341 22.3354 49.9198 22.4118 49.7932 22.4615L45.3455 24.2087C45.2189 24.2585 45.0832 24.2804 44.9474 24.2729C44.8116 24.2654 44.679 24.2287 44.5587 24.1652Z" fill="#E4E4E4"/>
<path d="M48.3851 2.66329C48.7503 1.80839 48.1222 0.720658 46.9823 0.233752C45.8423 -0.253154 44.6222 0.0451527 44.257 0.900045C43.8918 1.75494 44.5198 2.84268 45.6597 3.32959C46.7997 3.81649 48.0198 3.51818 48.3851 2.66329Z" fill="#2F2E41"/>
<path d="M44.8488 9.01782C46.0682 6.78715 45.2484 3.99032 43.0176 2.77093C40.7867 1.55153 37.9897 2.37134 36.7702 4.602C35.5507 6.83268 36.3706 9.6295 38.6014 10.8489C40.8322 12.0683 43.6293 11.2485 44.8488 9.01782Z" fill="#FFB6B6"/>
<path d="M43.3347 1.53794H38.0692C37.6832 1.53294 37.3096 1.67407 37.0233 1.933C36.7369 2.19194 36.5591 2.54955 36.5254 2.9341C36.5118 3.13846 36.5403 3.34344 36.6091 3.53634C36.678 3.72924 36.7857 3.90594 36.9256 4.0555C37.0656 4.20507 37.2347 4.3243 37.4226 4.40582C37.6105 4.48734 37.8132 4.52941 38.018 4.52941C38.4147 4.52941 38.7952 4.687 39.0757 4.9675C39.3563 5.24801 39.5139 5.62845 39.5139 6.02515V12.1577H47.741V5.94388C47.741 5.36528 47.627 4.79235 47.4056 4.2578C47.1842 3.72324 46.8596 3.23754 46.4504 2.82841C46.0413 2.41928 45.5555 2.09474 45.0209 1.87332C44.4864 1.6519 43.9134 1.53794 43.3347 1.53794Z" fill="#2F2E41"/>
<path d="M69.2912 85H12.2995C12.2598 85 12.2218 84.9842 12.1937 84.9562C12.1657 84.9281 12.1499 84.8901 12.1499 84.8504C12.1499 84.8107 12.1657 84.7727 12.1937 84.7446C12.2218 84.7166 12.2598 84.7008 12.2995 84.7008H69.2912C69.3309 84.7008 69.3689 84.7166 69.3969 84.7446C69.425 84.7727 69.4408 84.8107 69.4408 84.8504C69.4408 84.8901 69.425 84.9281 69.3969 84.9562C69.3689 84.9842 69.3309 85 69.2912 85Z" fill="#CACACA"/>
</g>
<defs>
<clipPath id="clip0_61_622">
<rect width="108" height="85" fill="white"/>
</clipPath>
</defs>
</svg>
