<svg width="387" height="279" viewBox="0 0 387 279" fill="none" xmlns="http://www.w3.org/2000/svg">
<g clip-path="url(#clip0_480_861)">
<path d="M190.814 277.821H175.948V163.393H188.039C188.624 163.393 189.186 163.624 189.601 164.038C190.016 164.451 190.251 165.011 190.254 165.597L190.814 277.821Z" fill="#CCCCCC"/>
<path d="M177.338 278.427H17.6924V196.934H177.338V278.427Z" fill="white"/>
<path d="M114.413 278.124H17.9951V197.237H177.035V215.496C177.016 232.1 170.412 248.019 158.673 259.76C146.933 271.501 131.016 278.105 114.413 278.124Z" fill="#F2F2F2"/>
<path d="M188.393 166.643C188.313 166.795 188.251 166.955 188.207 167.122L182.703 188.343L176.731 199.653H18.2979V196.836L27.318 188.343L37.8404 168.214C38.3049 167.325 38.9149 166.521 39.6451 165.833C41.3112 164.266 43.5127 163.393 45.8004 163.393H186.434C186.816 163.393 187.192 163.491 187.524 163.679C187.856 163.867 188.135 164.137 188.332 164.464C188.529 164.792 188.638 165.164 188.649 165.546C188.659 165.927 188.571 166.305 188.393 166.643Z" fill="#F2F2F2"/>
<path d="M177.338 278.427H17.6924V196.934H177.338V278.427ZM18.9043 277.215H176.126V198.146H18.9043V277.215Z" fill="#E6E6E6"/>
<path d="M185.644 177.499L182.702 188.343H27.3184L32.3392 179.317L185.644 177.499Z" fill="#CCCCCC"/>
<path d="M49.0282 239.638H23.5791V241.046H49.0282V239.638Z" fill="white"/>
<path d="M49.0282 244.567H23.5791V245.975H49.0282V244.567Z" fill="white"/>
<path d="M49.0282 249.497H23.5791V250.905H49.0282V249.497Z" fill="white"/>
<path d="M33.4371 223.948C38.4927 223.948 42.5911 219.85 42.5911 214.794C42.5911 209.737 38.4927 205.639 33.4371 205.639C28.3816 205.639 24.2832 209.737 24.2832 214.794C24.2832 219.85 28.3816 223.948 33.4371 223.948Z" fill="white"/>
<path d="M133.767 182.193H125.992V122.352H132.315C132.621 122.352 132.915 122.473 133.132 122.689C133.349 122.905 133.472 123.199 133.473 123.505L133.767 182.193Z" fill="#CCCCCC"/>
<path d="M126.719 182.51H43.2314V139.893H126.719V182.51Z" fill="white"/>
<path d="M93.812 182.351H43.3896V140.051H126.56V149.599C126.55 158.283 123.097 166.607 116.957 172.747C110.818 178.887 102.494 182.341 93.812 182.351Z" fill="#F2F2F2"/>
<path d="M132.5 124.052C132.458 124.131 132.425 124.215 132.403 124.302L129.524 135.4L126.401 141.314H43.5479V139.841L48.265 135.4L53.7677 124.873C54.0106 124.409 54.3296 123.988 54.7115 123.629C55.5828 122.809 56.734 122.352 57.9304 122.352H131.475C131.675 122.352 131.871 122.404 132.045 122.502C132.219 122.6 132.365 122.742 132.468 122.913C132.571 123.084 132.628 123.278 132.633 123.478C132.639 123.678 132.593 123.875 132.5 124.052Z" fill="#F2F2F2"/>
<path d="M126.719 182.51H43.2314V139.893H126.719V182.51ZM43.8652 181.876H126.085V140.526H43.8652V181.876Z" fill="#E6E6E6"/>
<path d="M131.062 129.729L129.524 135.399H48.2656L50.8912 130.679L131.062 129.729Z" fill="#CCCCCC"/>
<path d="M59.6182 162.225H46.3096V162.961H59.6182V162.225Z" fill="white"/>
<path d="M59.6182 164.802H46.3096V165.539H59.6182V164.802Z" fill="white"/>
<path d="M59.6182 167.38H46.3096V168.117H59.6182V167.38Z" fill="white"/>
<path d="M51.4658 154.019C54.1096 154.019 56.2529 151.876 56.2529 149.232C56.2529 146.588 54.1096 144.444 51.4658 144.444C48.822 144.444 46.6787 146.588 46.6787 149.232C46.6787 151.876 48.822 154.019 51.4658 154.019Z" fill="white"/>
<path d="M362.888 278.386L362.84 278.127C362.053 273.789 362.221 269.332 363.33 265.065C364.44 260.799 366.465 256.825 369.266 253.42C370.852 251.523 372.67 249.833 374.678 248.39L374.87 248.252L374.954 248.472C375.952 251.106 377.213 253.744 377.788 254.911L378.176 246.196L378.397 246.078C379.41 245.535 380.564 245.308 381.707 245.426C382.851 245.544 383.934 246.002 384.815 246.741C385.727 247.474 386.398 248.462 386.743 249.58C387.088 250.698 387.09 251.893 386.749 253.012C386.448 254.037 386.163 255.099 385.888 256.126C384.942 259.656 383.964 263.306 382.069 266.38C380.612 268.692 378.657 270.65 376.346 272.11C374.035 273.57 371.428 274.495 368.714 274.818L362.888 278.386Z" fill="#F2F2F2"/>
<path d="M387 278.279C387 278.374 386.982 278.467 386.946 278.555C386.91 278.643 386.856 278.722 386.789 278.789C386.722 278.856 386.643 278.909 386.555 278.946C386.468 278.982 386.374 279 386.279 279H0.721078C0.529837 279 0.346426 278.924 0.211197 278.789C0.0759693 278.653 0 278.47 0 278.279C0 278.088 0.0759693 277.904 0.211197 277.769C0.346426 277.634 0.529837 277.558 0.721078 277.558H386.279C386.374 277.557 386.468 277.576 386.555 277.612C386.643 277.648 386.722 277.701 386.789 277.768C386.856 277.835 386.91 277.915 386.946 278.002C386.982 278.09 387 278.184 387 278.279Z" fill="#CCCCCC"/>
<path d="M299.547 93.764L288.511 92.1831C284.778 98.4249 283.452 115.039 283.452 115.039L272.652 140.712C271.936 141.198 271.362 141.864 270.985 142.642C270.609 143.421 270.445 144.285 270.509 145.147C270.572 146.01 270.862 146.84 271.349 147.555C271.835 148.269 272.502 148.843 273.281 149.219C274.06 149.594 274.924 149.758 275.786 149.693C276.648 149.628 277.478 149.337 278.192 148.849C278.907 148.362 279.48 147.695 279.854 146.915C280.228 146.136 280.391 145.271 280.325 144.409L298.058 114.527L299.547 93.764Z" fill="#FFB8B8"/>
<path d="M297.79 63.1229C299.498 63.3875 301.127 64.0253 302.561 64.991C303.995 65.9567 305.198 67.2265 306.085 68.7101C306.972 70.1938 307.522 71.8547 307.694 73.5748C307.866 75.2949 307.658 77.0318 307.083 78.662L304.741 85.3007C304.741 85.3007 303.466 105.29 298.604 110.932L283.685 109.582C283.685 109.582 286.413 99.4968 284.319 94.6175C283.036 91.6292 283.108 81.3083 284.371 72.9124C284.608 71.3877 285.143 69.9247 285.946 68.6071C286.749 67.2896 287.804 66.1433 289.05 65.234C290.297 64.3247 291.71 63.6702 293.21 63.3079C294.71 62.9457 296.266 62.8828 297.79 63.1229Z" fill="#E6E6E6"/>
<path d="M334.262 270.533L327.615 270.533L324.452 244.888L334.264 244.889L334.262 270.533Z" fill="#FFB6B6"/>
<path d="M334.496 277.469L314.053 277.468V277.21C314.053 275.099 314.891 273.075 316.383 271.583C317.876 270.091 319.899 269.252 322.01 269.252L325.744 266.419L332.711 269.253L334.496 269.253L334.496 277.469Z" fill="#2F2E41"/>
<path d="M305.361 238.751L299.22 241.297L286.476 218.821L295.539 215.062L305.361 238.751Z" fill="#FFB6B6"/>
<path d="M308.233 245.068L289.349 252.899L289.25 252.66C288.442 250.711 288.441 248.52 289.248 246.57C290.055 244.62 291.603 243.07 293.552 242.261L295.917 238.213L303.438 238.162L305.086 237.478L308.233 245.068Z" fill="#2F2E41"/>
<path d="M341.863 124.653L294.684 129.582L288.374 150.84L266.519 185.966L290.65 230.306L299.148 222.677L290.99 186.872L315.338 160.584L319.955 158.668L323.62 256.216L337.175 256.439L343.106 148.801C345.957 139.292 345.099 131.441 341.863 124.653Z" fill="#2F2E41"/>
<path d="M324.565 57.3574L316.822 48.6372L304.586 49.9969L296.752 60.9613C292.582 61.9201 288.938 64.4406 286.57 68.0045C284.202 71.5683 283.289 75.9043 284.02 80.1205C287.06 97.6272 297.392 114.607 293.98 123.245C288.802 136.357 288.486 141.705 300.881 139.866C313.277 138.028 354.804 133.79 346.753 125.738C338.702 117.686 336.933 104.231 336.933 104.231L336.61 73.4473C336.953 71.5907 336.907 69.6833 336.477 67.8452C336.046 66.007 335.24 64.2779 334.108 62.7666C332.977 61.2553 331.545 59.9945 329.903 59.0636C328.26 58.1327 326.443 57.5518 324.565 57.3574Z" fill="#E6E6E6"/>
<path d="M309.433 46.4057C316.935 46.4057 323.016 40.324 323.016 32.8218C323.016 25.3195 316.935 19.2378 309.433 19.2378C301.932 19.2378 295.851 25.3195 295.851 32.8218C295.851 40.324 301.932 46.4057 309.433 46.4057Z" fill="#FFB8B8"/>
<path d="M326.169 32.0149C325.563 34.7671 324.469 37.3887 322.939 39.7555C322.533 40.5625 321.926 41.2515 321.177 41.7564C320.798 41.9998 320.345 42.1025 319.898 42.0466C319.451 41.9907 319.037 41.7797 318.729 41.4504L318.399 41.1812C319.047 40.7818 319.626 40.2796 320.112 39.6943C320.353 39.4005 320.52 39.0535 320.6 38.6821C320.68 38.3106 320.67 37.9255 320.571 37.5587C320.454 37.197 320.201 36.8948 319.865 36.7157C319.53 36.5365 319.138 36.4944 318.772 36.598C317.977 36.9101 317.493 38.0605 316.661 37.8831C315.988 37.7362 315.848 36.8489 315.848 36.1513C315.872 32.5044 314.11 27.3216 312.746 27.4807C311.367 27.556 309.987 27.3713 308.677 26.9361C307.365 26.5001 305.981 26.3235 304.602 26.4159C304.504 26.4282 304.406 26.4466 304.302 26.4649C304.081 25.772 303.777 25.1084 303.397 24.4885C303.44 25.2368 303.403 25.9875 303.287 26.728C302.189 27.1804 301.055 27.5386 299.897 27.7988C298.637 27.9763 295.865 31.7456 295.736 31.3601C295.515 30.6672 295.211 30.0036 294.831 29.3837C294.874 30.132 294.837 30.8827 294.721 31.6232C294.715 31.6538 294.715 31.6783 294.709 31.7089C294.097 30.895 293.723 29.9038 293.931 30.6626C291.882 26.0243 292.677 22.7017 295.902 18.7916C296.53 17.9509 297.362 17.2835 298.318 16.8519C298.798 16.6414 299.323 16.5578 299.844 16.6093C300.364 16.6607 300.863 16.8454 301.292 17.1456C302.607 15.9397 304.221 15.1076 305.966 14.7353C307.711 14.363 309.523 14.4642 311.216 15.0284C314.575 16.1972 317.163 16.8825 317.677 20.4071C320.455 19.9604 323.312 21.5391 324.842 23.8949C326.365 26.2569 326.677 29.2552 326.169 32.0149Z" fill="#2F2E41"/>
<path d="M315.155 144.842H310.646V110.143H314.313C314.49 110.143 314.661 110.213 314.787 110.338C314.912 110.463 314.984 110.633 314.985 110.811L315.155 144.842Z" fill="#3F3D56"/>
<path d="M311.068 145.026H262.657V120.314H311.068V145.026Z" fill="white"/>
<path d="M291.987 144.934H262.749V120.406H310.977V125.943C310.971 130.978 308.968 135.805 305.408 139.365C301.848 142.926 297.022 144.928 291.987 144.934Z" fill="#38A3A5"/>
<path d="M314.421 111.128C314.396 111.174 314.378 111.223 314.365 111.273L312.695 117.709L310.885 121.138H262.841V120.284L265.576 117.709L268.767 111.605C268.908 111.335 269.093 111.091 269.314 110.883C269.819 110.407 270.487 110.143 271.181 110.143H313.827C313.943 110.143 314.056 110.173 314.157 110.229C314.258 110.286 314.342 110.368 314.402 110.468C314.462 110.567 314.495 110.68 314.498 110.795C314.502 110.911 314.475 111.026 314.421 111.128Z" fill="#3F3D56"/>
<path d="M311.068 145.026H262.657V120.314H311.068V145.026ZM263.025 144.658H310.701V120.681H263.025V144.658Z" fill="#3F3D56"/>
<path d="M313.587 114.42L312.695 117.709H265.576L267.098 114.971L313.587 114.42Z" fill="#38A3A5"/>
<path d="M272.16 133.263H264.442V133.69H272.16V133.263Z" fill="white"/>
<path d="M272.16 134.758H264.442V135.185H272.16V134.758Z" fill="white"/>
<path d="M272.16 136.253H264.442V136.68H272.16V136.253Z" fill="white"/>
<path d="M267.431 128.506C268.964 128.506 270.207 127.263 270.207 125.73C270.207 124.197 268.964 122.954 267.431 122.954C265.898 122.954 264.655 124.197 264.655 125.73C264.655 127.263 265.898 128.506 267.431 128.506Z" fill="white"/>
<path d="M333.988 90.5916L322.952 89.0107C319.22 95.2526 317.894 111.866 317.894 111.866L307.093 137.54C306.378 138.025 305.803 138.691 305.427 139.47C305.051 140.248 304.886 141.112 304.95 141.975C305.014 142.837 305.304 143.668 305.79 144.382C306.277 145.097 306.943 145.671 307.722 146.046C308.501 146.422 309.365 146.585 310.228 146.52C311.09 146.456 311.92 146.165 312.634 145.677C313.348 145.19 313.921 144.522 314.295 143.743C314.67 142.963 314.832 142.099 314.766 141.237L332.5 111.354L333.988 90.5916Z" fill="#FFB8B8"/>
<path d="M328.007 59.95C329.715 60.2146 331.344 60.8524 332.778 61.8181C334.211 62.7838 335.414 64.0536 336.302 65.5372C337.189 67.0209 337.738 68.6818 337.911 70.4019C338.083 72.1219 337.874 73.8589 337.299 75.4891L334.957 82.1278C334.957 82.1278 337.907 102.117 333.045 107.759L318.127 106.409C318.127 106.409 320.854 96.3239 318.76 91.4445C317.478 88.4563 317.549 78.1354 318.813 69.7394C319.778 63.3285 321.601 58.9578 328.007 59.95Z" fill="#E6E6E6"/>
<path d="M234.296 26.8766C228.904 29.566 224.801 34.2874 222.89 40.0021C220.979 45.7169 221.416 51.9569 224.105 57.3494C229.705 68.5787 249.94 87.7302 266.085 90.6238C259.14 69.5347 268.797 48.0986 264.766 37.0687C260.458 25.2829 245.524 21.2763 234.296 26.8766Z" fill="#38A3A5"/>
<path d="M241.864 53.5832C245.956 53.5832 249.274 50.2656 249.274 46.1732C249.274 42.0808 245.956 38.7632 241.864 38.7632C237.772 38.7632 234.455 42.0808 234.455 46.1732C234.455 50.2656 237.772 53.5832 241.864 53.5832Z" fill="white"/>
<path d="M265.943 102.517C268.623 102.517 270.796 100.344 270.796 97.6639C270.796 94.9835 268.623 92.8105 265.943 92.8105C263.263 92.8105 261.09 94.9835 261.09 97.6639C261.09 100.344 263.263 102.517 265.943 102.517Z" fill="#38A3A5"/>
<path opacity="0.2" d="M244.122 38.3839C245.095 38.3501 246.065 38.5083 246.977 38.8497C247.889 39.191 248.724 39.7087 249.436 40.3731C250.148 41.0375 250.721 41.8357 251.124 42.7219C251.527 43.6082 251.752 44.5652 251.784 45.5383C251.817 46.5113 251.658 47.4813 251.316 48.3928C250.974 49.3044 250.456 50.1395 249.791 50.8506C249.126 51.5617 248.327 52.1348 247.441 52.537C246.554 52.9393 245.597 53.1629 244.624 53.1951C246.273 52.5817 247.65 51.4015 248.508 49.8657C249.367 48.3298 249.651 46.5386 249.309 44.8126C248.968 43.0866 248.023 41.5385 246.644 40.4454C245.266 39.3523 243.543 38.7855 241.785 38.8464C242.534 38.5671 243.324 38.4109 244.122 38.3839Z" fill="#231F20"/>
<path opacity="0.2" d="M264.803 37.0728C268.834 48.1026 259.177 69.5387 266.122 90.6279C264.598 90.3472 263.097 89.9543 261.631 89.4522C255.973 69.0655 264.854 48.6945 260.959 38.0377C257.473 28.4996 247.028 24.0575 237.219 25.6781C247.984 22.0061 260.856 26.2722 264.803 37.0728Z" fill="#231F20"/>
<path d="M37.3628 139.406C31.7814 139.272 26.3752 141.361 22.3338 145.214C18.2923 149.066 15.9465 154.366 15.8125 159.948C15.5334 171.572 23.8089 196.028 35.7785 205.394C39.228 185.112 56.4249 171.74 57.9024 160.959C59.4813 149.439 48.9856 139.686 37.3628 139.406Z" fill="#D1D3D4"/>
<path d="M35.2004 165.358C38.9921 165.358 42.0658 162.284 42.0658 158.492C42.0658 154.7 38.9921 151.625 35.2004 151.625C31.4087 151.625 28.335 154.7 28.335 158.492C28.335 162.284 31.4087 165.358 35.2004 165.358Z" fill="white"/>
<path d="M32.6119 215.596C35.0954 215.596 37.1087 213.583 37.1087 211.099C37.1087 208.615 35.0954 206.602 32.6119 206.602C30.1285 206.602 28.1152 208.615 28.1152 211.099C28.1152 213.583 30.1285 215.596 32.6119 215.596Z" fill="#D1D3D4"/>
<path opacity="0.2" d="M40.4254 153.091C42.0627 153.887 43.3166 155.302 43.9111 157.023C44.5057 158.744 44.3922 160.631 43.5957 162.268C43.2013 163.079 42.6511 163.804 41.9765 164.402C41.3019 165.001 40.5161 165.46 39.6639 165.754C37.943 166.349 36.0563 166.236 34.4189 165.439C36.0352 165.651 37.6743 165.281 39.0428 164.395C40.4112 163.509 41.4198 162.165 41.8879 160.604C42.3561 159.042 42.2532 157.365 41.5978 155.872C40.9423 154.379 39.7771 153.169 38.3106 152.457C39.0451 152.552 39.7593 152.767 40.4254 153.091Z" fill="#231F20"/>
<path opacity="0.2" d="M57.9314 160.979C56.4538 171.76 39.257 185.132 35.8074 205.414C34.6809 204.524 33.6218 203.552 32.6387 202.505C36.8375 183.355 52.9377 170.52 54.3653 160.103C55.6431 150.781 49.0123 142.616 40.2763 139.692C50.6847 141.35 59.3783 150.422 57.9314 160.979Z" fill="#231F20"/>
<path d="M117.228 49.9439C115.659 50.0465 114.192 50.7573 113.14 51.925C112.087 53.0926 111.532 54.625 111.591 56.1961C111.609 56.5152 111.652 56.8324 111.722 57.1443L93.9082 68.3679L103.756 72.7239L119.163 61.398C120.434 61.0096 121.54 60.2113 122.31 59.1277C123.08 58.044 123.469 56.736 123.418 55.4078C123.381 54.6523 123.196 53.9114 122.873 53.2274C122.55 52.5434 122.095 51.9298 121.535 51.4215C120.975 50.9132 120.32 50.5203 119.608 50.265C118.896 50.0098 118.141 49.8973 117.386 49.934C117.333 49.9366 117.28 49.9399 117.228 49.9439Z" fill="#FFB6B6"/>
<path d="M100.05 63.2667L104.465 72.3767L87.0089 83.6109C85.7669 84.4171 84.3393 84.8923 82.8619 84.9913C81.3845 85.0902 79.9063 84.8097 78.5678 84.1764C76.9405 83.3974 75.6105 82.1105 74.7782 80.5097C73.9458 78.9089 73.6564 77.0809 73.9534 75.3012L79.6174 42.9616C79.9977 40.6985 81.2306 38.6671 83.0626 37.2853C84.8946 35.9035 87.1864 35.2764 89.4666 35.5328C90.5773 35.6542 91.6531 35.9933 92.6328 36.5306C93.6124 37.0678 94.4766 37.7928 95.1761 38.6641C95.8756 39.5355 96.3966 40.536 96.7094 41.6087C97.0222 42.6814 97.1207 43.8052 96.9993 44.916C96.9897 45.0037 96.9787 45.0913 96.9664 45.1787C96.9236 45.4895 96.8641 45.7977 96.7881 46.102L90.6046 69.1014L100.05 63.2667Z" fill="#38A3A5"/>
<path d="M101.29 77.3896H76.3262V102.356H101.29V77.3896Z" fill="#FFB8B8"/>
<path d="M160.492 150.918L170.026 147.71L175.335 173.664L168.875 175.837L160.492 150.918Z" fill="#FFB6B6"/>
<path d="M144.333 148.923L153.79 145.494L159.702 171.317L153.294 173.64L144.333 148.923Z" fill="#FFB6B6"/>
<path d="M77.2217 108.878C72.2182 142.239 138.849 122.516 138.849 122.516L159.741 151.338L171.972 149.114C171.972 149.114 166.468 131.811 156.64 108.615C152.275 98.3143 102.713 100.831 102.713 100.831L101.683 92.7543L73.3301 92.1982L77.2217 108.878Z" fill="#2F2E41"/>
<path d="M125.353 124.752L140.76 115.155C152.04 137.681 155.365 147.437 155.365 147.437L144.701 150.436L125.353 124.752Z" fill="#2F2E41"/>
<path d="M91.4835 36.8192L86.4588 30.3597L79.2912 30.0488L78.5758 36.1241L75.0242 37.7619C71.478 51.2359 70.9303 65.3238 73.4198 79.0324C73.8958 79.4806 74.2436 80.0477 74.4273 80.6751C74.611 81.3026 74.624 81.9677 74.465 82.6019L74.2347 83.5199L74.256 83.5536C75.0117 84.7462 75.2681 86.1881 74.9699 87.5682L73.2738 90.5823C72.6652 91.6662 72.2999 92.8697 72.2034 94.1091C72.1069 95.3485 72.2815 96.594 72.715 97.7591C73.1486 98.9242 73.8307 99.9808 74.7139 100.856C75.5972 101.73 76.6603 102.402 77.8295 102.824C88.255 106.604 98.0282 108.011 105.258 97.4061L107.532 60.4481L91.4835 36.8192Z" fill="#38A3A5"/>
<path d="M86.2194 32.0748C93.5386 32.0748 99.472 26.1408 99.472 18.8208C99.472 11.5009 93.5386 5.56689 86.2194 5.56689C78.9002 5.56689 72.9668 11.5009 72.9668 18.8208C72.9668 26.1408 78.9002 32.0748 86.2194 32.0748Z" fill="#FFB8B8"/>
<path d="M79.5666 2.84348C73.9553 2.9513 69.5048 8.15675 69.6261 14.4702C65.4736 18.8035 64.4676 40.1174 67.9373 45.7875C74.2844 46.5244 78.145 30.8199 83.7113 33.0901L84.4446 29.6628L86.1068 34.126C87.5214 34.7782 88.9253 35.4941 90.3185 36.2737C91.3197 31.6808 91.0714 27.2164 88.3804 23.3278C85.9898 19.8732 91.8076 15.7719 95.9683 16.3516L95.9074 13.1787L96.9524 16.3327C98.5743 17.5246 100.368 17.0931 102.208 16.2317C105.191 0.725049 82.0939 -3.51553 79.5666 2.84348Z" fill="#2F2E41"/>
<path d="M165.939 180.227L170.187 179.672L170.421 175.562L172.887 179.319L184.153 177.848C184.693 177.777 185.196 177.536 185.589 177.159C185.982 176.782 186.245 176.289 186.338 175.753C186.432 175.216 186.351 174.664 186.108 174.176C185.865 173.689 185.473 173.291 184.989 173.043L175.18 168.004L174.651 163.949L165.262 165.75L165.939 180.227Z" fill="#2F2E41"/>
<path d="M154.72 180.264L158.573 178.393L157.494 174.42L161.023 177.203L171.243 172.24C171.733 172.002 172.134 171.614 172.388 171.132C172.641 170.65 172.734 170.1 172.653 169.561C172.572 169.022 172.32 168.524 171.936 168.138C171.551 167.753 171.053 167.5 170.515 167.418L159.616 165.744L157.83 162.065L149.494 166.747L154.72 180.264Z" fill="#2F2E41"/>
<path d="M96.5469 91.8809H101.272V55.5098H97.4292C97.2431 55.5098 97.0645 55.5835 96.9325 55.7148C96.8006 55.8461 96.726 56.0243 96.7251 56.2104L96.5469 91.8809Z" fill="#CCCCCC"/>
<path d="M100.831 66.1709H151.574V92.0734H100.831V66.1709Z" fill="white"/>
<path d="M100.927 72.0707V66.2671H151.478V91.977H120.831C115.554 91.971 110.495 89.8718 106.763 86.14C103.032 82.4081 100.933 77.3483 100.927 72.0707Z" fill="#F2F2F2"/>
<path d="M97.3169 56.5429C97.3424 56.5911 97.3622 56.6422 97.3759 56.695L99.1256 63.4402L101.024 67.035H151.382V66.1397L148.515 63.4402L145.17 57.0422C145.022 56.7597 144.828 56.504 144.596 56.2856C144.067 55.7873 143.367 55.5098 142.64 55.5098H97.9394C97.8181 55.5098 97.6988 55.5411 97.5931 55.6008C97.4875 55.6605 97.399 55.7465 97.3364 55.8505C97.2738 55.9544 97.2391 56.0728 97.2356 56.1941C97.2322 56.3154 97.2602 56.4356 97.3169 56.5429Z" fill="#F2F2F2"/>
<path d="M100.831 66.1709H151.574V92.0734H100.831V66.1709ZM151.189 91.6881H101.216V66.5561H151.189L151.189 91.6881Z" fill="#E6E6E6"/>
<path d="M98.1904 59.9932L99.1254 63.4401H148.514L146.918 60.5713L98.1904 59.9932Z" fill="#CCCCCC"/>
<path d="M149.703 79.7441H141.614V80.1918H149.703V79.7441Z" fill="white"/>
<path d="M149.703 81.311H141.614V81.7587H149.703V81.311Z" fill="white"/>
<path d="M149.703 82.8779H141.614V83.3256H149.703V82.8779Z" fill="white"/>
<path d="M146.57 74.7573C148.177 74.7573 149.479 73.4545 149.479 71.8474C149.479 70.2403 148.177 68.9375 146.57 68.9375C144.963 68.9375 143.66 70.2403 143.66 71.8474C143.66 73.4545 144.963 74.7573 146.57 74.7573Z" fill="white"/>
<path d="M123.098 27.8797C126.518 27.7976 129.831 29.0776 132.307 31.438C134.784 33.7985 136.221 37.0462 136.303 40.4665C136.474 47.5891 131.403 62.574 124.069 68.3135C121.955 55.8855 111.418 47.6917 110.513 41.0859C109.545 34.0273 115.977 28.0507 123.098 27.8797Z" fill="#D1D3D4"/>
<path d="M124.423 43.7811C126.746 43.7811 128.629 41.8975 128.629 39.5739C128.629 37.2503 126.746 35.3667 124.423 35.3667C122.099 35.3667 120.216 37.2503 120.216 39.5739C120.216 41.8975 122.099 43.7811 124.423 43.7811Z" fill="white"/>
<path d="M126.009 74.5645C127.531 74.5645 128.765 73.3307 128.765 71.8088C128.765 70.287 127.531 69.0532 126.009 69.0532C124.488 69.0532 123.254 70.287 123.254 71.8088C123.254 73.3307 124.488 74.5645 126.009 74.5645Z" fill="#D1D3D4"/>
<path opacity="0.2" d="M121.222 36.2645C120.725 36.5062 120.281 36.8433 119.914 37.2568C119.548 37.6702 119.266 38.1517 119.086 38.6739C118.906 39.1961 118.83 39.7487 118.863 40.3002C118.896 40.8517 119.038 41.3913 119.279 41.8881C119.521 42.3849 119.858 42.8293 120.271 43.1958C120.685 43.5623 121.166 43.8438 121.689 44.0242C122.211 44.2046 122.763 44.2804 123.315 44.2472C123.866 44.2141 124.406 44.0726 124.902 43.8309C123.912 43.961 122.908 43.7343 122.069 43.1915C121.231 42.6486 120.613 41.825 120.326 40.8681C120.039 39.9112 120.102 38.8835 120.504 37.9688C120.905 37.0541 121.619 36.3123 122.518 35.876C122.068 35.9347 121.63 36.0659 121.222 36.2645Z" fill="#231F20"/>
<path opacity="0.2" d="M110.495 41.0977C111.401 47.7035 121.938 55.8972 124.052 68.3252C124.742 67.7797 125.391 67.1839 125.993 66.5427C123.42 54.8088 113.555 46.9437 112.68 40.5612C111.897 34.8488 115.96 29.8457 121.313 28.0542C114.936 29.0702 109.609 34.6291 110.495 41.0977Z" fill="#231F20"/>
<path d="M115.604 62.8646C114.037 62.7485 112.485 63.2488 111.281 64.259C110.076 65.2692 109.313 66.7096 109.155 68.2738C109.127 68.5922 109.126 68.9124 109.152 69.231L89.9531 77.8728L99.1014 83.5539L115.93 74.4765C117.243 74.2684 118.45 73.6314 119.363 72.6651C120.275 71.6989 120.843 70.4576 120.976 69.135C121.114 67.6137 120.643 66.0996 119.665 64.926C118.687 63.7524 117.283 63.0152 115.762 62.8768C115.709 62.872 115.657 62.868 115.604 62.8646Z" fill="#FFB6B6"/>
<path d="M96.7431 73.6735L99.8507 83.3082L81.0045 92.0101C79.6626 92.6361 78.1829 92.9085 76.706 92.8014C75.2292 92.6943 73.8042 92.2113 72.5666 91.3983C71.0632 90.4009 69.9247 88.9419 69.3226 87.241C68.7206 85.5401 68.6877 83.6897 69.2288 81.9684L79.3269 50.7282C80.0176 48.5398 81.5205 46.6993 83.5266 45.5852C85.5327 44.4712 87.8893 44.1682 90.1119 44.7387C91.1949 45.0132 92.2133 45.4983 93.1088 46.1664C94.0044 46.8345 94.7596 47.6724 95.3314 48.6324C95.9031 49.5924 96.2802 50.6556 96.4411 51.7613C96.6021 52.8671 96.5436 53.9937 96.2692 55.0768C96.2475 55.1624 96.2245 55.2476 96.2001 55.3325C96.1146 55.6343 96.0128 55.9313 95.8953 56.2221L86.5794 78.1403L96.7431 73.6735Z" fill="#38A3A5"/>
</g>
<defs>
<clipPath id="clip0_480_861">
<rect width="387" height="279" fill="white"/>
</clipPath>
</defs>
</svg>
