<svg width="684" height="395" viewBox="0 0 684 395" fill="none" xmlns="http://www.w3.org/2000/svg">
<g clip-path="url(#clip0_21_848)">
<path d="M574.077 41.9296C578.487 73.0962 557.403 67.2254 542.027 64.8157C538.362 64.2403 531.649 69.163 529.333 70.4777C528.033 65.8618 527.956 67.0195 524.528 63.1612C526.377 68.2386 520.689 70.5007 522.761 73.4692C517.614 73.1034 515.337 62.1541 519.955 38.2784C521.988 27.7725 527.287 11.671 548.984 15.229C572.491 19.0855 572.696 32.1704 574.077 41.9296Z" fill="#2F2E41"/>
<path d="M542.963 64.8492C553.703 64.8492 562.409 56.1499 562.409 45.4188C562.409 34.6877 553.703 25.9884 542.963 25.9884C532.224 25.9884 523.517 34.6877 523.517 45.4188C523.517 56.1499 532.224 64.8492 542.963 64.8492Z" fill="#A0616A"/>
<path d="M516.79 38.4855L526.105 39.9079C530.213 37.3369 531.777 33.5222 531.973 29.038L531.036 40.6608L535.488 41.3407C538.394 39.4035 539.693 37.3056 538.911 34.9999L538.365 41.7799C550.232 46.0523 561.735 49.203 571.446 46.8314C571.947 43.5601 571.797 40.2223 571.007 37.0086C570.216 33.795 568.8 30.7684 566.838 28.1017C564.877 25.435 562.409 23.1804 559.576 21.4666C556.743 19.7528 553.599 18.6134 550.325 18.1135L545.531 17.3814C542.257 16.8814 538.916 17.0307 535.7 17.8208C532.484 18.6108 529.455 20.026 526.786 21.9857C524.117 23.9454 521.861 26.4112 520.146 29.2422C518.431 32.0732 517.29 35.2141 516.79 38.4855Z" fill="#2F2E41"/>
<path d="M485.462 166.378H39.1866C36.4244 166.375 33.7762 165.277 31.8231 163.326C29.8699 161.374 28.7712 158.728 28.768 155.968V63.621C28.7712 60.8611 29.8699 58.215 31.8231 56.2634C33.7762 54.3118 36.4244 53.214 39.1866 53.2108H485.462C488.224 53.214 490.872 54.3118 492.825 56.2634C494.778 58.215 495.877 60.8611 495.88 63.621V155.968C495.877 158.728 494.778 161.374 492.825 163.326C490.872 165.277 488.224 166.375 485.462 166.378Z" fill="#E6E6E6"/>
<path d="M455.341 159.357H46.2157C43.4535 159.353 40.8054 158.256 38.8522 156.304C36.899 154.352 35.8004 151.706 35.7971 148.946V70.6484C35.8004 67.8884 36.899 65.2424 38.8522 63.2908C40.8054 61.3392 43.4535 60.2414 46.2157 60.2382H478.434C481.196 60.2414 483.845 61.3392 485.798 63.2908C487.751 65.2424 488.85 67.8884 488.853 70.6484V125.872C488.843 134.749 485.309 143.26 479.026 149.538C472.744 155.815 464.226 159.347 455.341 159.357Z" fill="white"/>
<path d="M401.386 95.7342H276.787C276.075 95.7342 275.391 95.4514 274.887 94.9479C274.384 94.4444 274.1 93.7615 274.1 93.0494C274.1 92.3374 274.384 91.6545 274.887 91.151C275.391 90.6475 276.075 90.3646 276.787 90.3646H401.386C402.098 90.3646 402.782 90.6475 403.286 91.151C403.789 91.6545 404.073 92.3374 404.073 93.0494C404.073 93.7615 403.789 94.4444 403.286 94.9479C402.782 95.4514 402.098 95.7342 401.386 95.7342Z" fill="#38A3A5"/>
<path d="M432.923 111.67H245.251C244.538 111.67 243.854 111.388 243.351 110.884C242.847 110.381 242.564 109.698 242.564 108.986C242.564 108.274 242.847 107.591 243.351 107.087C243.854 106.584 244.538 106.301 245.251 106.301H432.923C433.635 106.301 434.319 106.584 434.822 107.087C435.326 107.591 435.609 108.274 435.609 108.986C435.609 109.698 435.326 110.381 434.822 110.884C434.319 111.388 433.635 111.67 432.923 111.67Z" fill="#E6E6E6"/>
<path d="M432.923 129.23H245.251C244.538 129.23 243.854 128.947 243.351 128.444C242.847 127.94 242.564 127.257 242.564 126.545C242.564 125.833 242.847 125.15 243.351 124.647C243.854 124.143 244.538 123.86 245.251 123.86H432.923C433.635 123.86 434.319 124.143 434.822 124.647C435.326 125.15 435.609 125.833 435.609 126.545C435.609 127.257 435.326 127.94 434.822 128.444C434.319 128.947 433.635 129.23 432.923 129.23Z" fill="#E6E6E6"/>
<path d="M275.131 68.6115H273.6V9.67737H384.344V11.2073H275.131V68.6115Z" fill="#3F3D56"/>
<path d="M431.176 0H390.601C387.961 0 385.43 1.04771 383.564 2.91264C381.697 4.77758 380.649 7.30696 380.649 9.94437C380.649 12.5818 381.697 15.1112 383.564 16.9761C385.43 18.841 387.961 19.8887 390.601 19.8887H431.176C433.815 19.8887 436.347 18.841 438.213 16.9761C440.08 15.1112 441.128 12.5818 441.128 9.94437C441.128 7.30696 440.08 4.77758 438.213 2.91264C436.347 1.04771 433.815 0 431.176 0Z" fill="#38A3A5"/>
<path d="M273.477 78.622C278.528 78.622 282.623 74.5308 282.623 69.484C282.623 64.4372 278.528 60.3459 273.477 60.3459C268.426 60.3459 264.332 64.4372 264.332 69.484C264.332 74.5308 268.426 78.622 273.477 78.622Z" fill="#E6E6E6"/>
<path d="M604.782 378.796H596.332L592.31 346.229H604.782V378.796Z" fill="#A0616A"/>
<path d="M609.242 393.425H603.182L602.1 387.708L599.33 393.425H583.258C582.487 393.425 581.737 393.179 581.117 392.723C580.496 392.267 580.038 391.624 579.808 390.889C579.579 390.154 579.591 389.366 579.842 388.638C580.093 387.91 580.571 387.282 581.205 386.844L594.04 377.987V372.208L607.54 373.013L609.242 393.425Z" fill="#2F2E41"/>
<path d="M546.599 378.796H538.149L534.127 346.229H546.599V378.796Z" fill="#A0616A"/>
<path d="M551.059 393.425H544.999L543.917 387.708L541.147 393.425H525.075C524.304 393.425 523.554 393.179 522.934 392.723C522.313 392.267 521.855 391.624 521.625 390.889C521.396 390.154 521.408 389.366 521.659 388.638C521.91 387.91 522.388 387.282 523.022 386.844L535.857 377.987V372.208L549.357 373.013L551.059 393.425Z" fill="#2F2E41"/>
<path d="M626.591 189.554C627.185 188.72 627.589 187.765 627.774 186.758C627.959 185.751 627.921 184.715 627.662 183.724C627.403 182.733 626.93 181.811 626.276 181.023C625.621 180.234 624.802 179.599 623.876 179.161L603.276 118.919L591.002 125.356L614.264 182.925C613.631 184.529 613.609 186.31 614.202 187.929C614.795 189.548 615.961 190.894 617.481 191.711C619 192.528 620.767 192.76 622.446 192.362C624.125 191.965 625.6 190.965 626.591 189.554Z" fill="#A0616A"/>
<path d="M497.749 216.447C498.731 216.155 499.637 215.65 500.403 214.97C501.169 214.289 501.776 213.449 502.182 212.509C502.588 211.568 502.783 210.55 502.752 209.527C502.722 208.503 502.467 207.499 502.006 206.584L522.847 146.425L509.208 143.957L492.11 203.645C490.624 204.52 489.51 205.911 488.981 207.552C488.452 209.193 488.543 210.971 489.239 212.549C489.934 214.127 491.184 215.395 492.753 216.114C494.321 216.833 496.099 216.951 497.749 216.447Z" fill="#A0616A"/>
<path d="M530.618 180.529C530.618 180.529 584.967 166.664 582.676 171.349C582.676 171.349 599.457 166.16 601.788 200.757L601.05 270.028L604.083 324.107C604.083 324.107 602.234 328.509 604.308 328.124C606.382 327.739 604.649 334.197 604.649 334.197C604.649 334.197 602.902 341.072 605.025 340.907C607.147 340.743 605.616 351.452 605.616 351.452H591.836L565.433 232.886L553.585 276.148C553.585 276.148 554.237 280.784 553.132 280.93C552.027 281.077 552.802 284.41 552.802 284.41L552.387 288.789L546.668 349.158L533.653 349.923C533.653 349.923 533.551 348.598 533.653 345.333C533.729 342.907 534.476 339.032 532.507 335.838C530.319 332.29 529.05 328.186 531.597 323.665C533.36 320.536 531.07 316.227 530.797 312.155C529.077 286.46 527.228 252.169 527.282 224.145C527.284 223.026 525.535 220.23 527.297 220.821C529.06 221.411 527.321 218.298 527.339 217.06C527.373 214.765 529.744 210.764 527.488 210.35C525.232 209.936 527.559 208.15 527.601 207.077C528.046 195.744 528.985 186.413 530.618 180.529Z" fill="#2F2E41"/>
<path d="M555.116 67.3157L532.915 69.6105L530.763 79.9533L509.691 92.8139L516.983 112.515C516.983 112.515 511.06 132.465 527.802 140.466L533.68 157.58L531.609 169.738L531.034 173.113C532.504 175.838 532.761 177.841 530.176 178.149L529.342 183.045C525.636 185.189 525.762 188.998 527.556 193.533L601.815 201.182C604.87 191.216 588.385 158.308 579.614 155.285L580.756 106.12L582.649 73.7749L557.385 76.0698L555.116 67.3157Z" fill="#3F3D56"/>
<path d="M576.869 75.2269C577.901 74.4821 579.087 73.9797 580.341 73.7573C581.594 73.5349 582.881 73.5982 584.106 73.9425C585.331 74.2868 586.463 74.9032 587.416 75.7456C588.37 76.588 589.121 77.6348 589.612 78.8077L602.824 110.312C605.321 111.214 609.428 118.895 607.94 120.862C607.971 122.943 607.249 121.432 609.267 124.319C611.565 124.482 612.164 125.448 610.578 127.447L610.237 130.042L611.172 130.218C613.676 130.308 613.806 131.24 612.243 132.772C612.761 133.084 613.159 133.561 613.372 134.127C613.584 134.692 613.599 135.313 613.414 135.888L611.741 141.091L598.726 147.21L577.317 107.093L573.861 84.9136C573.245 83.1913 573.205 81.3157 573.748 79.5688C574.29 77.8219 575.385 76.2982 576.869 75.2269Z" fill="#3F3D56"/>
<path d="M517.536 93.6799C516.367 92.6683 514.921 92.0293 513.385 91.8453C511.849 91.6612 510.293 91.9405 508.917 92.6471C507.541 93.3537 506.408 94.4554 505.664 95.8105C504.92 97.1657 504.598 98.7123 504.74 100.251C505.771 111.381 506.867 123.224 506.867 123.224L505.071 154.068L521.431 157.58L522.063 153.157L523.728 152.225L522.561 149.667C522.856 149.696 523.153 149.651 523.427 149.537C523.7 149.423 523.941 149.243 524.127 149.013C524.314 148.783 524.441 148.511 524.496 148.22C524.551 147.929 524.534 147.629 524.445 147.347L523.377 143.957C523.544 144.093 523.752 144.171 523.967 144.18C524.183 144.188 524.396 144.126 524.574 144.004C524.752 143.881 524.885 143.704 524.954 143.5C525.022 143.295 525.023 143.074 524.955 142.869L523.962 139.86L528.303 109.455L518.934 95.2706C518.543 94.679 518.073 94.1438 517.536 93.6799Z" fill="#3F3D56"/>
<path d="M330.252 151.694H328.721V210.629H439.465V209.099H330.252V151.694Z" fill="#3F3D56"/>
<path d="M496.249 210.362C496.246 207.725 495.197 205.197 493.331 203.333C491.465 201.468 488.935 200.42 486.297 200.417H445.722C443.082 200.417 440.551 201.465 438.684 203.33C436.818 205.195 435.769 207.724 435.769 210.362C435.769 212.999 436.818 215.529 438.684 217.393C440.551 219.258 443.082 220.306 445.722 220.306H486.297C488.935 220.304 491.465 219.255 493.331 217.391C495.197 215.526 496.246 212.998 496.249 210.362Z" fill="#38A3A5"/>
<path d="M330.129 157.412C335.18 157.412 339.274 153.321 339.274 148.274C339.274 143.227 335.18 139.136 330.129 139.136C325.078 139.136 320.984 143.227 320.984 148.274C320.984 153.321 325.078 157.412 330.129 157.412Z" fill="#E6E6E6"/>
<path d="M165.997 152.459H167.529V211.394H56.7842V209.864H165.997V152.459Z" fill="#3F3D56"/>
<path d="M9.95235 221.071H50.5273C53.1668 221.071 55.6982 220.023 57.5647 218.158C59.4311 216.293 60.4796 213.764 60.4796 211.127C60.4796 208.489 59.4311 205.96 57.5647 204.095C55.6982 202.23 53.1668 201.182 50.5273 201.182H9.95235C7.31282 201.182 4.78141 202.23 2.91498 204.095C1.04855 205.96 0 208.489 0 211.127C0 213.764 1.04855 216.293 2.91498 218.158C4.78141 220.023 7.31282 221.071 9.95235 221.071Z" fill="#38A3A5"/>
<path d="M167.829 156.9C172.88 156.9 176.975 152.809 176.975 147.762C176.975 142.715 172.88 138.624 167.829 138.624C162.778 138.624 158.684 142.715 158.684 147.762C158.684 152.809 162.778 156.9 167.829 156.9Z" fill="#E6E6E6"/>
<path d="M79.7001 137.191C94.9213 137.191 107.26 124.862 107.26 109.653C107.26 94.4442 94.9213 82.1149 79.7001 82.1149C64.479 82.1149 52.1398 94.4442 52.1398 109.653C52.1398 124.862 64.479 137.191 79.7001 137.191Z" fill="#F2F2F2"/>
<path d="M184.124 95.59H165.939C165.226 95.59 164.543 95.3071 164.039 94.8036C163.535 94.3001 163.252 93.6172 163.252 92.9052C163.252 92.1931 163.535 91.5102 164.039 91.0067C164.543 90.5032 165.226 90.2203 165.939 90.2203H184.124C184.836 90.2203 185.52 90.5032 186.024 91.0067C186.528 91.5102 186.811 92.1931 186.811 92.9052C186.811 93.6172 186.528 94.3001 186.024 94.8036C185.52 95.3071 184.836 95.59 184.124 95.59Z" fill="#38A3A5"/>
<path d="M215.661 111.526H134.402C133.69 111.526 133.006 111.243 132.502 110.74C131.998 110.236 131.715 109.553 131.715 108.841C131.715 108.129 131.998 107.446 132.502 106.943C133.006 106.439 133.69 106.156 134.402 106.156H215.661C216.373 106.156 217.057 106.439 217.561 106.943C218.064 107.446 218.348 108.129 218.348 108.841C218.348 109.553 218.064 110.236 217.561 110.74C217.057 111.243 216.373 111.526 215.661 111.526Z" fill="#E6E6E6"/>
<path d="M215.661 129.086H134.402C133.69 129.086 133.006 128.803 132.502 128.3C131.998 127.796 131.715 127.113 131.715 126.401C131.715 125.689 131.998 125.006 132.502 124.503C133.006 123.999 133.69 123.716 134.402 123.716H215.661C216.373 123.716 217.057 123.999 217.561 124.503C218.064 125.006 218.348 125.689 218.348 126.401C218.348 127.113 218.064 127.796 217.561 128.3C217.057 128.803 216.373 129.086 215.661 129.086Z" fill="#E6E6E6"/>
</g>
<defs>
<clipPath id="clip0_21_848">
<rect width="684" height="395" fill="white"/>
</clipPath>
</defs>
</svg>
