<svg width="643" height="474" viewBox="0 0 643 474" fill="none" xmlns="http://www.w3.org/2000/svg">
<g clip-path="url(#clip0_21_1020)">
<path opacity="0.1" d="M6.94507 252.254C17.1196 295.788 38.6584 333.419 72.6986 351.66C143.44 389.567 302.979 370.018 422.05 347.553C482.216 336.24 536.828 304.987 577.094 258.826L6.94507 252.254Z" fill="#38A3A5"/>
<path opacity="0.1" d="M631.337 47.353H566.005C564.508 47.353 563.071 46.7574 562.012 45.6973C560.953 44.6372 560.358 43.1993 560.358 41.7001C560.358 40.2008 560.953 38.763 562.012 37.7029C563.071 36.6428 564.508 36.0472 566.005 36.0472H577.299C575.802 36.0472 574.365 35.4516 573.306 34.3915C572.247 33.3314 571.652 31.8935 571.652 30.3943C571.652 28.895 572.247 27.4572 573.306 26.397C574.365 25.3369 575.802 24.7414 577.299 24.7414H569.235C567.737 24.7414 566.301 24.1458 565.242 23.0856C564.183 22.0255 563.588 20.5877 563.588 19.0884C563.588 17.5892 564.183 16.1513 565.242 15.0912C566.301 14.0311 567.737 13.4355 569.235 13.4355H603.333C595.767 9.91528 586.923 7.41005 576.737 6.09582C483.759 -5.86125 450.563 2.04755 438.853 10.2028C424.406 20.2354 408.288 27.6162 391.063 31.1716C333.697 43.0173 226.413 57.2742 129.174 26.6071C80.8453 11.3527 44.9238 37.1209 23.3967 80.1616H642.678C641.869 67.653 639.448 56.1067 635.006 45.9919C633.985 46.8713 632.683 47.3543 631.337 47.353Z" fill="#38A3A5"/>
<path opacity="0.1" d="M1.4007 161.403C-1.10888 186.72 -0.257505 212.259 3.93261 237.352L577.528 258.35C593.495 239.963 606.901 219.497 617.382 197.509L1.4007 161.403ZM228.265 215.585H216.971C218.468 215.585 219.905 216.181 220.964 217.241C222.023 218.301 222.618 219.739 222.618 221.238C222.618 222.737 222.023 224.175 220.964 225.235C219.905 226.295 218.468 226.891 216.971 226.891H151.639C150.141 226.891 148.705 226.295 147.646 225.235C146.587 224.175 145.992 222.737 145.992 221.238C145.992 219.739 146.587 218.301 147.646 217.241C148.705 216.181 150.141 215.585 151.639 215.585H162.933C161.435 215.585 159.999 214.99 158.94 213.929C157.881 212.869 157.286 211.431 157.286 209.932C157.286 208.433 157.881 206.995 158.94 205.935C159.999 204.875 161.435 204.279 162.933 204.279H154.869C153.371 204.279 151.935 203.684 150.876 202.624C149.816 201.563 149.222 200.126 149.222 198.626C149.222 197.127 149.816 195.689 150.876 194.629C151.935 193.569 153.371 192.973 154.869 192.973H220.2C221.698 192.973 223.134 193.569 224.193 194.629C225.252 195.689 225.847 197.127 225.847 198.626C225.847 200.126 225.252 201.563 224.193 202.624C223.134 203.684 221.698 204.279 220.2 204.279H228.265C229.762 204.279 231.199 204.875 232.258 205.935C233.317 206.995 233.912 208.433 233.912 209.932C233.912 211.431 233.317 212.869 232.258 213.929C231.199 214.99 229.762 215.585 228.265 215.585Z" fill="#38A3A5"/>
<path opacity="0.1" d="M642.707 80.549L16.4751 95.8033C8.86179 115.399 3.83899 137.559 1.49463 160.535H631.735C635.85 147.042 638.894 133.244 640.837 119.272C642.713 105.766 643.463 92.7114 642.707 80.549ZM128.629 130.513H117.335C118.833 130.513 120.269 131.108 121.328 132.169C122.387 133.229 122.982 134.667 122.982 136.166C122.982 137.665 122.387 139.103 121.328 140.163C120.269 141.223 118.833 141.819 117.335 141.819H52.0039C50.5062 141.819 49.0699 141.223 48.0109 140.163C46.9519 139.103 46.3569 137.665 46.3569 136.166C46.3569 134.667 46.9519 133.229 48.0109 132.169C49.0699 131.108 50.5062 130.513 52.0039 130.513H63.2979C61.8002 130.513 60.3639 129.917 59.3049 128.857C58.2458 127.797 57.6509 126.359 57.6509 124.86C57.6509 123.361 58.2458 121.923 59.3049 120.863C60.3639 119.803 61.8002 119.207 63.2979 119.207H55.2333C53.7356 119.207 52.2993 118.611 51.2403 117.551C50.1812 116.491 49.5863 115.053 49.5863 113.554C49.5863 112.055 50.1812 110.617 51.2403 109.557C52.2993 108.497 53.7356 107.901 55.2333 107.901H120.565C122.062 107.901 123.499 108.497 124.558 109.557C125.617 110.617 126.212 112.055 126.212 113.554C126.212 115.053 125.617 116.491 124.558 117.551C123.499 118.611 122.062 119.207 120.565 119.207H128.629C130.127 119.207 131.563 119.803 132.622 120.863C133.681 121.923 134.276 123.361 134.276 124.86C134.276 126.359 133.681 127.797 132.622 128.857C131.563 129.917 130.127 130.513 128.629 130.513Z" fill="#38A3A5"/>
<g opacity="0.1">
<path d="M397.106 365.682C397.106 365.682 413.633 324.906 444.497 309.781C457.488 303.527 468.102 293.223 474.745 280.416C477.848 274.305 480.385 267.923 482.323 261.348" stroke="#535461" stroke-width="2" stroke-miterlimit="10"/>
<path d="M501.717 251.697C498.499 255.745 481.849 261.671 481.849 261.671C481.849 261.671 483.853 244.07 487.071 240.051C488.668 238.273 490.883 237.173 493.263 236.975C495.643 236.776 498.009 237.494 499.878 238.982C501.748 240.47 502.98 242.616 503.322 244.982C503.665 247.348 503.093 249.756 501.723 251.715L501.717 251.697Z" fill="#38A3A5"/>
<path d="M496.003 283.766C491.103 285.415 473.919 281.314 473.919 281.314C473.919 281.314 485.142 267.655 490.042 266.007C492.344 265.395 494.793 265.684 496.89 266.814C498.988 267.944 500.577 269.83 501.336 272.091C502.094 274.351 501.965 276.815 500.975 278.984C499.984 281.152 498.207 282.862 496.003 283.766Z" fill="#38A3A5"/>
<path d="M465.022 321.668C459.964 320.617 447.193 308.39 447.193 308.39C447.193 308.39 463.768 302.271 468.832 303.321C471.123 303.961 473.086 305.448 474.323 307.481C475.56 309.515 475.979 311.944 475.495 314.275C475.011 316.606 473.66 318.666 471.715 320.038C469.77 321.409 467.378 321.99 465.022 321.662V321.668Z" fill="#38A3A5"/>
<path d="M435.131 345.065C429.968 344.884 415.315 334.998 415.315 334.998C415.315 334.998 430.624 326.179 435.788 326.344C437.071 326.304 438.349 326.528 439.542 327.002C440.735 327.476 441.818 328.191 442.724 329.101C443.63 330.012 444.34 331.099 444.809 332.295C445.278 333.491 445.497 334.771 445.452 336.056C445.407 337.34 445.099 338.601 444.547 339.762C443.995 340.922 443.211 341.957 442.244 342.801C441.276 343.646 440.146 344.283 438.922 344.672C437.699 345.062 436.408 345.196 435.131 345.065Z" fill="#38A3A5"/>
<path d="M457.918 269.856C458.581 274.989 469.769 288.671 469.769 288.671C469.769 288.671 477.136 272.595 476.48 267.462C476.022 265.123 474.693 263.045 472.761 261.652C470.83 260.258 468.441 259.652 466.079 259.956C463.718 260.261 461.56 261.453 460.045 263.292C458.529 265.13 457.769 267.477 457.918 269.856Z" fill="#38A3A5"/>
<path d="M423.304 297.66C425.467 302.353 440.236 312.063 440.236 312.063C440.236 312.063 442.463 294.515 440.301 289.821C439.84 288.623 439.138 287.533 438.24 286.617C437.341 285.701 436.265 284.979 435.077 284.497C433.889 284.014 432.614 283.78 431.332 283.81C430.05 283.84 428.788 284.132 427.623 284.67C426.459 285.207 425.417 285.978 424.562 286.934C423.707 287.891 423.057 289.013 422.652 290.231C422.247 291.449 422.096 292.737 422.208 294.016C422.32 295.295 422.693 296.537 423.304 297.665V297.66Z" fill="#38A3A5"/>
<path d="M393.366 329.306C394.703 334.305 407.626 346.368 407.626 346.368C407.626 346.368 412.784 329.453 411.441 324.454C410.674 322.2 409.079 320.321 406.98 319.2C404.881 318.078 402.434 317.798 400.136 318.415C397.838 319.032 395.86 320.5 394.603 322.522C393.346 324.545 392.904 326.97 393.366 329.306Z" fill="#38A3A5"/>
<path opacity="0.25" d="M501.717 251.697C498.499 255.745 481.849 261.671 481.849 261.671C481.849 261.671 483.853 244.07 487.071 240.051C488.668 238.273 490.883 237.173 493.263 236.975C495.643 236.776 498.009 237.494 499.878 238.982C501.748 240.47 502.98 242.616 503.322 244.982C503.665 247.348 503.093 249.756 501.723 251.715L501.717 251.697Z" fill="black"/>
<path opacity="0.25" d="M496.003 283.766C491.103 285.415 473.919 281.314 473.919 281.314C473.919 281.314 485.142 267.655 490.042 266.007C492.344 265.395 494.793 265.684 496.89 266.814C498.988 267.944 500.577 269.83 501.336 272.091C502.094 274.351 501.965 276.815 500.975 278.984C499.984 281.152 498.207 282.862 496.003 283.766Z" fill="black"/>
<path opacity="0.25" d="M465.022 321.668C459.964 320.617 447.193 308.39 447.193 308.39C447.193 308.39 463.768 302.271 468.832 303.321C471.123 303.961 473.086 305.448 474.323 307.481C475.56 309.515 475.979 311.944 475.495 314.275C475.011 316.606 473.66 318.666 471.715 320.038C469.77 321.409 467.378 321.99 465.022 321.662V321.668Z" fill="black"/>
<path opacity="0.25" d="M435.131 345.065C429.968 344.884 415.315 334.998 415.315 334.998C415.315 334.998 430.624 326.179 435.788 326.344C437.071 326.304 438.349 326.528 439.542 327.002C440.735 327.476 441.818 328.191 442.724 329.101C443.63 330.012 444.34 331.099 444.809 332.295C445.278 333.491 445.497 334.771 445.452 336.056C445.407 337.34 445.099 338.601 444.547 339.762C443.995 340.922 443.211 341.957 442.244 342.801C441.276 343.646 440.146 344.283 438.922 344.672C437.699 345.062 436.408 345.196 435.131 345.065Z" fill="black"/>
<path opacity="0.25" d="M457.918 269.856C458.581 274.989 469.769 288.671 469.769 288.671C469.769 288.671 477.136 272.595 476.48 267.462C476.022 265.123 474.693 263.045 472.761 261.652C470.83 260.258 468.441 259.652 466.079 259.956C463.718 260.261 461.56 261.453 460.045 263.292C458.529 265.13 457.769 267.477 457.918 269.856Z" fill="black"/>
<path opacity="0.25" d="M423.304 297.66C425.467 302.353 440.236 312.063 440.236 312.063C440.236 312.063 442.463 294.515 440.301 289.821C439.84 288.623 439.138 287.533 438.24 286.617C437.341 285.701 436.265 284.979 435.077 284.497C433.889 284.014 432.614 283.78 431.332 283.81C430.05 283.84 428.788 284.132 427.623 284.67C426.459 285.207 425.417 285.978 424.562 286.934C423.707 287.891 423.057 289.013 422.652 290.231C422.247 291.449 422.096 292.737 422.208 294.016C422.32 295.295 422.693 296.537 423.304 297.665V297.66Z" fill="black"/>
<path opacity="0.25" d="M393.366 329.306C394.703 334.305 407.626 346.368 407.626 346.368C407.626 346.368 412.784 329.453 411.441 324.454C410.674 322.2 409.079 320.321 406.98 319.2C404.881 318.078 402.434 317.798 400.136 318.415C397.838 319.032 395.86 320.5 394.603 322.522C393.346 324.545 392.904 326.97 393.366 329.306Z" fill="black"/>
</g>
<g opacity="0.1">
<path d="M385.384 306.061C385.384 306.061 387.47 262.105 411.576 237.587C421.743 227.364 428.324 214.116 430.331 199.832C431.235 193.043 431.515 186.185 431.169 179.344" stroke="#535461" stroke-width="2" stroke-miterlimit="10"/>
<path d="M446.337 163.802C444.644 168.69 430.894 179.796 430.894 179.796C430.894 179.796 426.967 162.553 428.661 157.666C428.997 156.422 429.585 155.262 430.388 154.256C431.191 153.25 432.192 152.42 433.33 151.818C434.467 151.216 435.716 150.855 436.998 150.757C438.281 150.658 439.57 150.826 440.786 151.247C442.001 151.669 443.117 152.337 444.063 153.209C445.01 154.082 445.767 155.139 446.288 156.317C446.809 157.494 447.082 158.767 447.09 160.055C447.099 161.342 446.843 162.618 446.337 163.802Z" fill="#38A3A5"/>
<path d="M451.542 195.931C447.439 199.11 429.892 200.953 429.892 200.953C429.892 200.953 435.958 184.337 440.031 181.157C440.989 180.304 442.112 179.657 443.33 179.256C444.548 178.854 445.835 178.707 447.112 178.824C448.389 178.94 449.629 179.318 450.754 179.932C451.88 180.547 452.868 181.387 453.656 182.399C454.445 183.411 455.018 184.575 455.34 185.817C455.661 187.06 455.725 188.355 455.527 189.623C455.329 190.891 454.873 192.106 454.187 193.19C453.502 194.275 452.602 195.208 451.542 195.931Z" fill="#38A3A5"/>
<path d="M434.867 241.999C429.745 242.685 413.651 235.392 413.651 235.392C413.651 235.392 427.266 224.116 432.406 223.429C433.663 223.177 434.959 223.185 436.214 223.454C437.468 223.723 438.654 224.246 439.698 224.992C440.742 225.738 441.622 226.69 442.284 227.79C442.945 228.89 443.375 230.114 443.545 231.387C443.715 232.659 443.623 233.954 443.274 235.189C442.925 236.425 442.326 237.575 441.515 238.57C440.704 239.564 439.697 240.382 438.558 240.972C437.419 241.561 436.17 241.911 434.891 241.999H434.867Z" fill="#38A3A5"/>
<path d="M414.419 273.992C409.484 275.535 392.388 271.058 392.388 271.058C392.388 271.058 403.899 257.64 408.833 256.097C411.149 255.532 413.593 255.87 415.669 257.044C417.744 258.217 419.295 260.138 420.007 262.416C420.718 264.693 420.536 267.156 419.498 269.304C418.46 271.453 416.644 273.124 414.419 273.98V273.992Z" fill="#38A3A5"/>
<path d="M411.002 195.473C413.346 200.096 428.421 209.29 428.421 209.29C428.421 209.29 430.044 191.689 427.723 187.054C426.519 184.994 424.576 183.47 422.29 182.793C420.004 182.116 417.546 182.336 415.416 183.409C413.286 184.481 411.644 186.325 410.824 188.566C410.004 190.808 410.068 193.277 411.002 195.473Z" fill="#38A3A5"/>
<path d="M387.558 233.198C391.157 236.912 408.306 241.166 408.306 241.166C408.306 241.166 404.596 223.875 400.997 220.161C399.233 218.555 396.923 217.682 394.538 217.72C392.154 217.758 389.873 218.704 388.16 220.366C386.448 222.028 385.433 224.281 385.321 226.666C385.209 229.051 386.009 231.389 387.558 233.204V233.198Z" fill="#38A3A5"/>
<path d="M369.8 272.988C372.73 277.26 388.906 284.353 388.906 284.353C388.906 284.353 388.168 266.681 385.249 262.41C383.773 260.559 381.652 259.335 379.312 258.984C376.972 258.633 374.585 259.18 372.632 260.516C370.678 261.852 369.301 263.878 368.777 266.188C368.253 268.498 368.62 270.921 369.806 272.971L369.8 272.988Z" fill="#38A3A5"/>
</g>
<path opacity="0.1" d="M175.675 455.143C198.72 462.9 226.835 458.182 252.98 458.728C256.561 458.804 260.347 459.027 263.219 460.365C266.091 461.703 267.503 463.885 269.473 465.733C276.799 472.651 291.809 474.874 304.931 473.701C318.054 472.527 330.086 468.643 342.441 465.686C363.845 460.57 388.314 458.247 409.425 463.821C411.365 464.331 413.405 464.918 415.48 464.718C420.11 464.261 421.487 460.553 424.722 458.435C430.583 454.609 443.26 455.648 445.822 450.608C447.328 447.675 443.864 444.624 440.095 442.605C425.666 434.884 405.024 433.611 386.14 434.802C367.256 435.993 348.689 439.279 329.705 439.29C306.057 439.29 283.205 434.251 259.785 432.185C243.562 430.754 225.856 430.93 210.647 435.119C194.207 439.707 190.573 449.939 175.675 455.143Z" fill="#38A3A5"/>
<path d="M218.325 108.482H214.222V166.566H218.325V108.482Z" fill="#535461"/>
<path d="M218.325 186.514H214.222V219.369H218.325V186.514Z" fill="#535461"/>
<path d="M374.166 51.5715H244.757C229.511 51.5715 217.152 63.9436 217.152 79.2054V425.245C217.152 440.506 229.511 452.879 244.757 452.879H374.166C389.412 452.879 401.771 440.506 401.771 425.245V79.2054C401.771 63.9436 389.412 51.5715 374.166 51.5715Z" fill="#535461"/>
<path d="M374.166 70.3461H244.757C229.511 70.3461 217.152 82.7182 217.152 97.9799V408.23C217.152 423.492 229.511 435.864 244.757 435.864H374.166C389.412 435.864 401.771 423.492 401.771 408.23V97.9799C401.771 82.7182 389.412 70.3461 374.166 70.3461Z" fill="#38A3A5"/>
<path d="M322.942 60.3721H296.568C295.435 60.3721 294.516 61.2914 294.516 62.4255C294.516 63.5596 295.435 64.479 296.568 64.479H322.942C324.075 64.479 324.993 63.5596 324.993 62.4255C324.993 61.2914 324.075 60.3721 322.942 60.3721Z" fill="#EAEAF3"/>
<path d="M335.543 65.6525C337.161 65.6525 338.473 64.3391 338.473 62.7189C338.473 61.0988 337.161 59.7854 335.543 59.7854C333.924 59.7854 332.612 61.0988 332.612 62.7189C332.612 64.3391 333.924 65.6525 335.543 65.6525Z" fill="#EAEAF3"/>
<path d="M261.578 232.394V275.224C261.593 276.567 261.341 277.899 260.837 279.144C260.332 280.388 259.586 281.52 258.641 282.473C257.696 283.427 256.571 284.182 255.331 284.696C254.092 285.21 252.763 285.473 251.421 285.468C245.771 285.468 240.285 280.886 240.285 275.224V232.394C240.285 226.809 245.754 222.227 251.421 222.227C254.112 222.238 256.689 223.312 258.591 225.217C260.494 227.121 261.567 229.701 261.578 232.394ZM265.569 290.443C265.566 291.881 265.847 293.305 266.395 294.634C266.943 295.963 267.748 297.171 268.764 298.187C269.78 299.204 270.986 300.01 272.313 300.559C273.641 301.107 275.064 301.388 276.5 301.385H283.85L283.961 323.979C283.961 337.62 304.351 337.515 304.351 323.979V301.391H318.089V323.985C318.089 337.556 338.602 337.591 338.602 323.985V301.391H346.063C347.494 301.386 348.91 301.1 350.23 300.547C351.55 299.995 352.749 299.188 353.757 298.172C354.765 297.156 355.564 295.951 356.107 294.626C356.651 293.3 356.928 291.881 356.923 290.449V224.092H265.569V290.443ZM357.169 220.525H265.153C265.153 204.684 274.607 190.944 288.644 183.774L281.611 170.72C280.579 168.907 283.199 167.786 284.084 169.318L291.252 182.483C297.559 179.721 304.368 178.295 311.252 178.295C318.136 178.295 324.946 179.721 331.253 182.483L338.379 169.359C339.305 167.769 341.896 168.954 340.853 170.761L333.82 183.774C347.716 190.944 357.169 204.702 357.169 220.525ZM294.118 199.991C294.118 198.96 293.709 197.973 292.981 197.244C292.254 196.516 291.267 196.107 290.238 196.107C289.236 196.146 288.288 196.572 287.592 197.295C286.897 198.019 286.509 198.984 286.509 199.988C286.509 200.992 286.897 201.957 287.592 202.68C288.288 203.404 289.236 203.83 290.238 203.869C291.264 203.869 292.248 203.462 292.975 202.737C293.702 202.013 294.113 201.029 294.118 200.002V199.991ZM336.006 199.991C335.994 199.234 335.759 198.499 335.33 197.876C334.9 197.254 334.296 196.773 333.594 196.494C332.892 196.215 332.123 196.151 331.384 196.309C330.645 196.468 329.97 196.842 329.444 197.384C328.917 197.927 328.563 198.613 328.427 199.357C328.29 200.101 328.376 200.869 328.675 201.563C328.974 202.258 329.472 202.848 330.106 203.259C330.74 203.671 331.482 203.885 332.237 203.875C333.247 203.852 334.207 203.433 334.912 202.709C335.616 201.985 336.009 201.013 336.006 200.002V199.991ZM371.019 222.215C369.684 222.211 368.361 222.471 367.127 222.981C365.893 223.491 364.772 224.239 363.828 225.184C362.884 226.129 362.136 227.252 361.627 228.487C361.118 229.722 360.858 231.046 360.862 232.383V275.212C360.856 276.553 361.115 277.881 361.623 279.121C362.13 280.361 362.877 281.489 363.82 282.441C364.763 283.392 365.885 284.148 367.12 284.665C368.355 285.183 369.68 285.451 371.019 285.456C376.71 285.456 382.154 280.874 382.154 275.212V232.383C382.137 226.703 376.669 222.227 371.019 222.227V222.215Z" fill="white"/>
<path d="M304.187 334.106H266.091V335.866H304.187V334.106Z" fill="#535461"/>
<path d="M343.455 334.106H318.253V335.866H343.455V334.106Z" fill="#535461"/>
<path d="M257.886 334.106H232.684V335.866H257.886V334.106Z" fill="#535461"/>
<path d="M383.309 334.106H358.107V335.866H383.309V334.106Z" fill="#535461"/>
</g>
<defs>
<clipPath id="clip0_21_1020">
<rect width="643" height="474" fill="white"/>
</clipPath>
</defs>
</svg>
